<svg width="101" height="35" viewBox="0 0 101 35" fill="none" xmlns="http://www.w3.org/2000/svg">
<path d="M0.990104 0.423687C1.14541 1.12255 2.10311 2.8697 2.73726 3.64621C4.36793 5.63926 7.37045 7.14052 11.0201 7.76173C12.1978 7.95586 14.4755 8.1241 18.1899 8.29235C21.4771 8.43471 24.9067 9.09474 26.628 9.91008C27.4303 10.2983 28.9575 11.3207 28.854 11.4113C28.8281 11.4372 28.4786 11.3207 28.0904 11.1525C26.7315 10.5442 25.7608 10.4407 20.2217 10.2336C11.7448 9.92302 10.36 9.78066 7.92695 8.88767C7.33162 8.66766 6.32216 8.18881 5.688 7.82644C5.05385 7.46407 4.51029 7.20523 4.47147 7.24405C4.34205 7.36053 5.7786 9.3277 6.69747 10.2854C7.21514 10.829 8.01754 11.489 8.47051 11.7608C9.95882 12.6538 12.9355 13.4173 15.8344 13.6891C17.4004 13.8185 17.9957 13.8185 20.4417 13.6115C24.7902 13.2361 27.4045 13.1973 29.0351 13.4691C29.7728 13.5856 30.5623 13.7668 30.7823 13.8574C31.2223 14.0385 32.0765 14.7503 32.2577 15.0868C32.3741 15.3068 32.3483 15.3068 31.7529 15.0868C29.8117 14.3362 26.8738 14.2715 23.5866 14.8798C20.7912 15.3974 19.3546 15.5139 16.8568 15.4363C15.252 15.3845 14.2555 15.281 13.4402 15.0998C12.7931 14.9445 12.1848 14.828 12.0813 14.828C11.9648 14.8409 12.2625 15.2033 12.7672 15.6822C14.8379 17.6234 18.2675 18.6329 21.7489 18.3094C23.2372 18.1799 25.9291 17.5717 27.7668 16.9634C29.1516 16.5104 30.6917 16.4198 32.193 16.6916C33.3189 16.8987 34.6649 17.3775 34.5096 17.5328C34.4707 17.5717 33.6166 17.6105 32.6071 17.6105C30.5623 17.6234 29.954 17.7399 27.8574 18.5811C26.0715 19.2929 25.1138 19.5259 23.8196 19.5388C22.7583 19.5518 22.7066 19.5647 22.9136 19.7847C23.0172 19.9141 23.4701 20.1859 23.8972 20.393C25.8126 21.3248 27.5468 21.4154 29.8634 20.7165C30.6917 20.4577 31.8824 20.0565 32.4906 19.8106C34.2766 19.0859 35.3637 18.9176 37.4991 19.0212C39.9063 19.1506 39.9063 19.1506 40.0357 18.9564C40.204 18.6717 39.9322 18.4905 39.3369 18.4905C38.5086 18.4776 37.8874 18.0893 36.645 16.8081C35.299 15.4363 34.7813 14.7374 33.5648 12.6279C32.5424 10.8807 32.1153 10.3113 31.1447 9.36652C29.3069 7.59348 26.628 6.24753 24.0396 5.78162C23.6125 5.70397 22.0983 5.52278 20.6747 5.38042C15.7956 4.87569 12.5213 4.47449 10.7871 4.138C7.62928 3.54268 4.89855 2.48144 2.36194 0.863711C1.68897 0.423687 1.0807 0.0742566 1.01599 0.0742566C0.96422 0.0742566 0.951279 0.229559 0.990104 0.423687Z" fill="#CDAD01"/>
<path d="M99.6201 0.812011C96.7729 2.59799 94.2881 3.55569 90.8197 4.20278C89.189 4.51339 87.6748 4.69457 82.4074 5.25107C80.3497 5.47109 78.3049 5.70404 77.8778 5.78169C76.0142 6.0923 73.5034 7.16647 72.0539 8.26653C70.3586 9.54778 69.5691 10.4666 68.4302 12.4856C67.4337 14.2716 66.4372 15.6305 65.2206 16.8729C64.017 18.0894 63.4088 18.4777 62.5805 18.4906C61.9981 18.4906 61.6228 18.7494 61.8557 18.9824C62.011 19.1377 61.9334 19.1377 64.4182 19.0212C66.696 18.9306 67.5372 19.0601 69.582 19.8624C72.7787 21.1178 74.6941 21.4284 76.4542 20.9754C77.3601 20.7425 78.7061 20.1083 79.0167 19.7848C79.2108 19.5648 79.159 19.5518 78.1625 19.5389C76.8424 19.5389 76.1177 19.3707 74.0599 18.5812C71.9116 17.7529 70.5139 17.4941 68.7926 17.5976C68.0678 17.6364 67.4466 17.6235 67.4078 17.5717C67.2784 17.3647 68.5079 16.8988 69.6985 16.6917C71.1351 16.4329 72.8046 16.5234 73.8917 16.8858C79.0167 18.62 82.7957 18.8142 86.1347 17.52C87.2995 17.067 88.7748 16.1222 89.5255 15.3457L90.0431 14.8022L89.6549 14.8669C89.4478 14.8928 88.5807 15.0481 87.7395 15.2034C85.0993 15.6693 81.5144 15.5399 78.0072 14.8281C76.0918 14.4398 73.3869 14.3492 71.9375 14.621C71.3033 14.7504 70.5009 14.9445 70.1644 15.0869C69.595 15.294 69.5432 15.294 69.6467 15.0998C69.8021 14.841 70.3974 14.2845 70.8503 13.9998C71.4068 13.6374 73.7881 13.275 75.5612 13.275C76.4412 13.275 78.6802 13.3915 80.5567 13.5468C84.3228 13.8445 85.8241 13.8186 88.1925 13.4045C92.5668 12.6409 94.4951 11.5408 96.5917 8.61596C97.0835 7.9171 97.4847 7.32177 97.4847 7.27001C97.4847 7.10176 97.2129 7.21824 96.4105 7.71003C95.9446 8.00769 95.0905 8.43477 94.4951 8.68067C92.0491 9.67719 90.6644 9.87132 84.4134 10.1043C77.0754 10.3761 76.6742 10.389 75.5353 10.622C74.9788 10.7384 74.2023 10.9714 73.814 11.1526C73.4258 11.3208 73.0893 11.4373 73.0634 11.4114C72.9599 11.3208 74.487 10.2984 75.3023 9.91015C77.2307 8.99127 80.4662 8.43477 85.1252 8.2277C88.6195 8.0724 90.0043 7.94298 91.8162 7.56767C94.9352 6.94646 97.6918 5.47109 99.1801 3.64628C100.06 2.57211 101.264 0.0743244 100.901 0.0743244C100.837 0.0743244 100.267 0.410813 99.6201 0.812011Z" fill="#CDAD01"/>
<path d="M48.0856 6.57112C47.9044 6.80407 45.3678 11.8255 43.53 15.6045C41.7958 19.1636 40.5016 21.4931 38.9227 23.8873C35.7649 28.6888 32.5553 31.9242 29.3457 33.542L27.9221 34.2667L28.7892 34.1891C29.7987 34.0855 31.4682 33.6326 32.5812 33.1408C34.6778 32.209 37.3826 29.9312 39.2592 27.5111C41.1099 25.1427 41.9511 23.745 46.1831 16.1222L48.3703 12.1749L48.4091 14.9833C48.422 16.5364 48.4868 17.8047 48.5385 17.8047C48.6032 17.8047 48.9527 17.7141 49.315 17.6105L49.988 17.4035V11.9161V6.41581H49.095C48.5385 6.41581 48.1632 6.48052 48.0856 6.57112Z" fill="#700070"/>
<path d="M50.7645 11.7867V17.1834L51.101 17.1058C51.2951 17.054 51.6057 16.9764 51.8128 16.9375L52.1881 16.8728L52.214 12.3302L52.2528 7.78763L52.7705 7.67115C53.0552 7.60644 53.9612 7.55467 54.7765 7.54173C56.0577 7.51585 56.3425 7.55467 56.8731 7.80057C57.7402 8.18883 58.7238 9.17241 59.1379 10.0266C59.4485 10.6478 59.4873 10.9196 59.5003 11.9161C59.5003 12.8997 59.4485 13.1973 59.1638 13.7927C58.3355 15.5657 56.4201 16.8987 53.3529 17.8435C52.0458 18.2447 47.6714 19.4741 46.1443 19.8753C45.6784 19.9918 45.5878 20.0695 45.5878 20.3283C45.5878 20.4965 45.6395 20.6648 45.7042 20.7166C45.769 20.7554 47.0373 20.4707 48.5256 20.0824C54.0647 18.6329 54.7636 18.4517 54.88 18.4517C54.9577 18.4517 55.4236 19.28 55.9283 20.3024C59.8885 28.3134 66.1524 33.3349 73.2057 34.1632C73.5552 34.202 73.814 34.2149 73.7881 34.189C73.7493 34.1502 73.0375 33.7749 72.1833 33.3349C66.916 30.643 62.6322 26.5275 59.9274 21.5578C58.7626 19.4224 57.8696 17.6364 57.9084 17.5199C57.9343 17.4552 58.452 17.1964 59.0732 16.9634C59.6815 16.7305 60.4321 16.381 60.7168 16.1869C62.5028 15.0739 63.3958 13.1714 63.0593 11.2172C62.671 8.90063 61.1827 7.38643 58.6332 6.72639C58.012 6.55815 56.9896 6.49344 54.2976 6.45462L50.7645 6.38991V11.7867Z" fill="#700070"/>
<path d="M51.4504 20.7555L50.7645 20.9496V24.5474V28.1582H53.0941C54.9836 28.1582 55.4236 28.1194 55.4236 27.977C55.4236 27.8088 54.8024 27.6405 54.0906 27.6405C53.8965 27.6405 53.4953 27.5241 53.2105 27.3687C52.3693 26.9417 52.2787 26.6052 52.2011 23.3568L52.1234 20.5613L51.4504 20.7555Z" fill="#700070"/>
<path d="M49.6645 21.2343C49.5998 21.2602 49.2892 21.3508 49.0045 21.4284L48.4609 21.5578L48.3703 24.0038C48.2927 26.0487 48.2409 26.5146 48.0338 26.8511C47.7103 27.3817 47.1409 27.6535 46.1184 27.7441C45.4843 27.8088 45.2643 27.8864 45.2643 28.0288C45.2643 28.197 45.6137 28.2229 47.5938 28.2229H49.9234L49.9622 24.6898C49.9751 22.7614 49.9492 21.1696 49.8975 21.1825C49.8328 21.1825 49.7422 21.2084 49.6645 21.2343Z" fill="#700070"/>
</svg>
